<svg width="24" height="24" viewBox="0 0 600 600" fill="none" xmlns="http://www.w3.org/2000/svg">
<circle cx="300" cy="300" r="242.5" stroke="#471C05" stroke-width="15"/>
<g clip-path="url(#clip0_634_5)">
<circle cx="300" cy="300" r="235" transform="rotate(180 300 300)" fill="#F1CB41"/>
</g>
<g clip-path="url(#clip1_634_5)">
<circle cx="300" cy="300" r="235" transform="rotate(-180 300 300)" fill="#645CA0"/>
</g>
<circle cx="300" cy="300" r="125" fill="white"/>
<mask id="path-5-inside-1_634_5" fill="white">
<path d="M20 270C20 242.386 42.3858 220 70 220H530C557.614 220 580 242.386 580 270V380H70C42.3858 380 20 357.614 20 330V270Z"/>
</mask>
<path d="M20 270C20 242.386 42.3858 220 70 220H530C557.614 220 580 242.386 580 270V380H70C42.3858 380 20 357.614 20 330V270Z" fill="white"/>
<path d="M5 270C5 234.101 34.1015 205 70 205H530C565.899 205 595 234.101 595 270H565C565 250.67 549.33 235 530 235H70C50.67 235 35 250.67 35 270H5ZM595 395H70C34.1015 395 5 365.899 5 330H35C35 349.33 50.67 365 70 365H565L595 395ZM70 395C34.1015 395 5 365.899 5 330V270C5 234.101 34.1015 205 70 205V235C50.67 235 35 250.67 35 270V330C35 349.33 50.67 365 70 365V395ZM530 205C565.899 205 595 234.101 595 270V395L565 365V270C565 250.67 549.33 235 530 235V205Z" fill="#471C05" mask="url(#path-5-inside-1_634_5)"/>
<path d="M208.992 264.608V274.688H247.584V264.608H208.992ZM202.848 286.592V296.672H249.504V286.592H202.848ZM211.2 325.184V335.456H243.84V325.184H211.2ZM205.92 302.336V340.064H216.384V312.608H235.68V339.968H246.72V302.336H205.92ZM222.144 250.496V293.312H232.896V250.496H222.144ZM208.416 253.376C207.168 263.456 204.672 274.208 200.832 280.928C203.424 281.984 208.128 284.384 210.24 285.92C214.08 278.432 217.248 266.624 218.88 255.2L208.416 253.376ZM161.28 271.904V340.064H170.4V281.408H191.232V339.776H200.832V271.904H161.28ZM165.216 310.112V318.368H196.8V310.112H165.216ZM165.216 325.088V334.016H196.8V325.088H165.216ZM160.032 253.952V263.552H201.6V253.952H160.032ZM169.92 256.256V279.392H178.848V256.256H169.92ZM183.456 256.256V279.392H192.48V256.256H183.456ZM173.76 279.296V288.896C173.76 293.408 173.28 298.688 169.344 302.912C170.592 303.584 172.992 305.6 173.856 306.752C178.464 301.856 179.424 294.656 179.424 288.992V279.296H173.76ZM182.688 279.104V296.864C182.688 302.624 183.84 303.968 188.256 303.968C188.928 303.968 190.656 303.968 191.52 303.968C194.496 303.968 196.224 302.912 196.992 300.128C195.168 299.648 192.96 298.784 191.904 297.92C191.712 298.112 191.52 298.208 190.56 298.208C190.176 298.208 189.216 298.208 188.928 298.208C188.16 298.208 188.064 298.112 188.064 296.768V279.104H182.688ZM255.936 256.64V266.528H289.536V256.64H255.936ZM266.304 285.536V295.328H278.112V319.232H266.304V328.928H287.808V285.536H266.304ZM266.016 261.248C264.096 278.624 260.64 295.328 253.44 305.984C255.36 308.48 258.432 314.048 259.488 316.64C268.8 303.68 273.792 283.424 276.576 262.784L266.016 261.248ZM261.792 285.536V336.704H271.392V285.536H261.792ZM290.208 268.352V277.952H343.68V268.352H290.208ZM287.712 327.872V337.568H345.024V327.872H287.712ZM305.664 274.304V330.848H314.592V274.304H305.664ZM318.912 274.304V330.848H327.936V274.304H318.912ZM297.984 253.664C300.384 258.752 302.496 265.376 303.168 269.6L312.864 266.432C312.192 262.112 309.792 255.68 307.2 250.784L297.984 253.664ZM326.4 250.4C325.152 255.296 322.656 261.92 320.544 266.336L329.664 269.312C331.872 265.28 334.656 259.328 337.344 253.568L326.4 250.4ZM296.928 306.464V315.584H310.176V306.464H296.928ZM323.52 306.464V315.584H336.768V306.464H323.52ZM292.704 282.08V321.632H301.344V282.08H292.704ZM332.544 282.08V320.384H341.376V282.08H332.544ZM351.36 256.352C362.88 269.984 364.704 284.192 364.704 301.952C364.704 313.664 364.224 325.28 362.304 327.776C361.728 328.64 360.864 329.024 359.712 329.12C358.272 329.312 356.064 329.312 352.992 329.12C354.624 332.096 355.392 336.032 355.488 339.488C358.944 339.584 362.304 339.488 364.992 338.816C367.2 338.432 369.024 337.184 370.272 335.456C374.208 329.696 374.88 315.488 374.88 302.24C374.88 283.328 373.152 267.008 359.04 250.976L351.36 256.352ZM364.608 286.4C361.632 294.464 355.584 303.68 349.92 308.384C352.128 310.592 354.816 314.816 356.16 317.408C362.4 310.976 369.024 300.032 372.48 290.912L364.608 286.4ZM369.504 250.784C365.088 260.288 357.504 270.56 349.44 277.184C351.84 278.816 355.104 281.984 356.736 284.192C365.088 276.992 373.056 266.72 378.336 255.968L369.504 250.784ZM377.376 263.168V339.104H386.4V263.168H377.376ZM404.448 274.496V327.584H412.704V284.192H435.552V274.496H404.448ZM417.024 257.312V340.544H426.24V257.312H417.024ZM403.392 254.912V264.608H440.64V254.912H403.392ZM430.56 274.496V317.504C430.56 318.272 430.368 318.464 429.696 318.464C429.024 318.56 427.488 318.56 425.664 318.464C427.008 320.768 428.352 324.704 428.736 327.2C432.096 327.2 434.496 326.912 436.608 325.376C438.624 323.84 439.2 321.248 439.2 317.696V274.496H430.56ZM384.768 250.88C384 255.776 382.176 262.592 380.736 267.2L389.28 268.928C391.008 264.8 393.12 258.56 395.136 252.608L384.768 250.88ZM381.6 263.168V272.864H391.872V283.808H381.6V293.408H400.992V263.168H381.6ZM382.08 299.744V309.44H392.544V322.688H382.08V332.384H401.664V299.744H382.08Z" fill="#471C05"/>
<defs>
<clipPath id="clip0_634_5">
<rect width="470" height="235" fill="white" transform="matrix(-1 0 0 -1 535 535)"/>
</clipPath>
<clipPath id="clip1_634_5">
<rect width="470" height="235" fill="white" transform="translate(65 65)"/>
</clipPath>
</defs>
</svg>
